<?xml version="1.0" encoding="UTF-8"?>
<svg version="1.1" viewBox="0 0 2000 2000" width="500" height="500" xmlns="http://www.w3.org/2000/svg">
<path transform="translate(685,125)" d="m0 0h43l16 2 29 6 20 8 20 9 24 13 19 14 11 9 10 9 15 14 8 7 20 20 11 14 20 26 28 42 12 21 3 8 4-2 6-8 9-16 6-9 6-11 8-11 11-15 12-16 13-16 16-17 7-8 23-23h2l2-4 8-7 11-8 14-10 11-7 22-12 20-9 23-7 33-6h45l37 8 17 5 17 8 14 6 18 11 10 7 12 9 16 13 10 9 8 7 10 9 18 18 9 11 20 26 13 18 10 15 15 26 16 29 15 30 13 29 12 27 13 38 15 43 11 38 8 30 8 32 12 56 10 64 3 20 7 66 3 37 2 46v164l-2 49-4 47-7 63-5 28-9 55-6 25-7 32-4 15-6 26-14 45-14 44-11 29-9 24-9 20-13 29-8 16-11 21-12 22-11 17-11 16-10 14-12 16-11 13-9 11-9 10-11 12-13 13-22 18-19 14-26 15-13 7-8 4-37 12-21 4-11 2h-43l-18-4-16-3-14-5-24-8-5-4-16-8-13-8-9-7-17-13-12-11-8-8-11-9-15-15-10-11-11-14-12-15-6-8-13-18-11-17-6-10-13-21-4-2-12 18-14 22-10 15-8 11-7 10-12 16-9 10-9 11-12 13-13 13-8 7-9 8-11 9-14 10-21 13-16 8-19 9-13 4-24 7-16 4-9 1h-41l-28-5-9-2-13-5-21-7-10-6-19-10-12-8-21-16-14-12-10-9-10-8-17-17-18-22-14-18-15-20-12-20-13-21-9-16-11-21-8-16-8-17-18-42-8-20-26-78-11-41-7-25-5-23-6-27-9-47-5-32-10-72-5-58-2-44-2-62v-60l2-68 6-80 3-22 7-48 4-30 11-55 8-37 8-32 11-41 14-43 15-43 11-27 10-25 17-35 8-16 11-21 6-10 13-22 13-19 8-11 15-20 12-14 2-3h2l2-4 15-16 30-30 28-20 13-9 21-11 26-12 27-7 16-4zm12 212-16 3-18 4-23 11-19 14-11 9-12 11-23 23v2h-2l-9 11-11 14-13 19-14 25-8 16-12 31-12 36-13 42-11 38-10 41-5 23-8 46-5 40-3 23-4 57-1 53v146l1 44 5 64 5 34 4 30 7 41 6 26 12 48 10 36 8 24 8 26 8 21 13 30 8 16 11 19 12 17 13 16 7 9 11 13 6 5h2l2 4 16 16 10 8 19 14 13 8 22 6 5 1h50l20-4 23-5 34-11 20-7 15-6 18-11 11-7 13-12 5-5 12-11 11-12 11-14 12-21 5-17v-32l-7-19-11-19-13-16-12-12-18-11-12-5-16-2-14-1-23 5-12 5-16 9-17 10-25 11-27 9-20 5h-48l-16-5-13-5-11-6-11-9-6-5-9-12-12-20-7-19-3-17v-37l4-22 8-17 10-19 5-5 24-16 16-8 5-2h44l25 7 15 5 25 11 18 8 23 10 16 8 28 8h37l11-5 12-4 9-6 11-10 10-15 9-13 6-16 3-7 2-12v-53l-4-15-8-19-9-15-11-14-11-12-16-9-15-4-22-2-24 4-12 3-24 11-10 4-10 5-21 9-18 7-22 5-11 3h-51l-10-4-10-3-11-6-13-10-12-13-9-14-8-17-4-16v-36l5-21 4-10 8-13 7-10 13-13 18-10 15-5 19-3h31l25 4 19 5 14 5 15 6 32 17 12 6 27 8 22 1 12-1 23-8 10-8 14-11 8-11 8-13 13-28 2-11v-55l-4-15-8-19-16-24-13-14-15-9-11-4-13-1h-15l-15 1-25 7-20 9-25 12-23 11-28 11-25 6-8 1h-29l-28-7-22-15-9-10-11-16-5-11-5-14-3-15v-37l5-23 5-14 10-19 9-10 12-12 13-8 12-7 14-5 4-1h57l28 7 31 14 48 24 12 5 4 1h35l18-8 9-5 20-15 5-4 11-14 9-15 4-9 4-13v-27l-8-24-7-14-12-16-7-9-16-17-8-8-16-12-10-7-14-8-21-9-21-7-25-8-24-7-19-4-31-2zm582 2-27 4-30 8-49 16-21 8-21 14-16 12-17 16-7 7-7 10-7 9-10 14-8 19-3 13v27l9 24 7 12 9 12 12 13 8 7 8 5 20 10 10 2h25l12-3 21-9 11-6 15-8 20-10 24-9 18-6 7-1h53l12 3 12 4 22 12 11 10 5 5 8 11 8 13 6 15 4 12 2 13v34l-3 22-4 10-10 19-8 9-7 8-6 5-17 10-12 6-10 2h-36l-16-3-21-5-7-4-23-10-10-5-49-22-6-3-16-3-7-2-18-1-15 1-18 5-12 8-10 8-6 7-11 15-11 19-4 11-3 18v45l3 16 5 16 6 11 11 17 7 10 7 6h2v2l8 6 16 6 11 4 12 1h15l9-1 15-5 12-3 16-7 32-16 15-6 25-8 20-4h49l14 4 11 5 14 8 13 11 10 11 7 11 7 14 3 11 1 7v34l-4 19-5 12-10 17-5 8-3 5-1 3-4 2-11 6-18 8-17 6h-55l-11-4-21-5-13-5-10-5-20-9-15-8-19-8-17-5-18-2-18 1-17 4-21 12-12 11-10 14-6 10-9 19-4 12-2 12v44l3 16 6 17 12 22 13 16 15 11 13 6 12 4h35l15-5 20-6 24-11 28-13 14-6 8-4 14-5 16-4 11-3h39l16 6 10 4 16 11 10 9 11 14 8 16 4 10 3 20v32l-3 24-4 10-11 22-11 13-9 10-22 12-22 10-9 2-10 1h-15l-24-3-27-7-19-7-16-8-19-10-34-17-4-1-13-1h-18l-15 1-13 5-11 7-10 8-10 9-7 8-11 15-8 17-4 14v30l8 23 6 10 13 19 13 16 12 12 22 16 14 9 35 17 52 16 14 4 22 4 7 2h34l30-10 6-3 15-9 9-7 16-13 8-7 34-34 8-10 10-14 8-11 9-16 12-22 8-16 11-30 12-34 9-30 5-16 6-22 6-24 9-43 5-32 4-24 4-32 5-60 3-35 1-44v-135l-1-31-5-52-3-38-6-45-5-29-3-17-10-47-14-51-6-19-14-43-12-35-12-25-11-21-12-20-13-17-11-13-9-10-12-13-10-10-11-9-16-12-11-7-10-6-21-9-20-4z" fill="#386842"/>
</svg>
